<svg width="38" height="38" viewBox="0 0 38 38" fill="none" xmlns="http://www.w3.org/2000/svg">
<path d="M3 13C3 8.58172 6.58172 5 11 5H27C31.4183 5 35 8.58172 35 13V30C35 34.4183 31.4183 38 27 38H11C6.58172 38 3 34.4183 3 30V13Z" fill="#00040B"/>
<path d="M16 18C16 19.6569 14.6569 21 13 21C11.3431 21 10 19.6569 10 18C10 16.3431 11.3431 15 13 15C14.6569 15 16 16.3431 16 18Z" fill="#F2D1FF"/>
<path d="M28 18C28 19.6569 26.6569 21 25 21C23.3431 21 22 19.6569 22 18C22 16.3431 23.3431 15 25 15C26.6569 15 28 16.3431 28 18Z" fill="#F2D1FF"/>
<path d="M18.134 23.5C18.5189 22.8333 19.4811 22.8333 19.866 23.5L20.732 25C21.117 25.6667 20.6358 26.5 19.866 26.5H18.134C17.3642 26.5 16.883 25.6667 17.268 25L18.134 23.5Z" fill="#E3F169"/>
<path d="M13 30C13 29.4477 13.4477 29 14 29H24C24.5523 29 25 29.4477 25 30V31C25 31.5523 24.5523 32 24 32H14C13.4477 32 13 31.5523 13 31V30Z" fill="#69B9F1"/>
<path d="M0 16C0 15.4477 0.447715 15 1 15H3C3.55228 15 4 15.4477 4 16V26C4 26.5523 3.55228 27 3 27H1C0.447715 27 0 26.5523 0 26V16Z" fill="#69B9F1"/>
<path d="M14 5C14 4.44772 14.4477 4 15 4H23C23.5523 4 24 4.44772 24 5V9C24 9.55228 23.5523 10 23 10H15C14.4477 10 14 9.55228 14 9V5Z" fill="#69B9F1"/>
<path d="M34 16C34 15.4477 34.4477 15 35 15H37C37.5523 15 38 15.4477 38 16V26C38 26.5523 37.5523 27 37 27H35C34.4477 27 34 26.5523 34 26V16Z" fill="#69B9F1"/>
<path d="M23 4C23 6.20914 21.2091 8 19 8C16.7909 8 15 6.20914 15 4C15 1.79086 16.7909 0 19 0C21.2091 0 23 1.79086 23 4Z" fill="#E3F169"/>
</svg>
