<svg width="87" height="86" viewBox="0 0 87 86" fill="none" xmlns="http://www.w3.org/2000/svg">
<path d="M30.3957 4.87829C37.8656 -1.6261 48.988 -1.6261 56.4579 4.87829C59.1439 7.21717 62.41 8.79001 65.9133 9.43178C75.656 11.2166 82.5907 19.9124 82.1628 29.808C82.0089 33.3663 82.8155 36.9004 84.4981 40.0396C89.1772 48.7695 86.7022 59.613 78.6987 65.4483C75.8207 67.5465 73.5606 70.3807 72.1553 73.6534C68.2474 82.7547 58.2264 87.5805 48.6742 84.9613C45.2393 84.0195 41.6143 84.0195 38.1794 84.9613C28.6272 87.5805 18.6063 82.7547 14.6983 73.6534C13.293 70.3807 11.0329 67.5465 8.15492 65.4483C0.1514 59.613 -2.32356 48.7695 2.35555 40.0396C4.03808 36.9004 4.84472 33.3663 4.69084 29.808C4.2629 19.9124 11.1976 11.2166 20.9403 9.43178C24.4436 8.79 27.7097 7.21717 30.3957 4.87829Z" fill="#1B6C4C"/>
<path d="M56.9268 43.5315C56.9268 50.7112 51.1065 56.5315 43.9268 56.5315C36.7471 56.5315 30.9268 50.7112 30.9268 43.5315C30.9268 36.3518 36.7471 30.5315 43.9268 30.5315C51.1065 30.5315 56.9268 36.3518 56.9268 43.5315Z" fill="#FFDDA0"/>
</svg>
